<?xml version="1.0" encoding="UTF-8"?> <svg xmlns="http://www.w3.org/2000/svg" xmlns:xlink="http://www.w3.org/1999/xlink" width="400.397" height="70.398" viewBox="0 0 400.397 70.398"><defs><linearGradient id="a" x1="0.821" y1="0.082" x2="0.219" y2="0.857" gradientUnits="objectBoundingBox"><stop offset="0" stop-color="#38ef7d"></stop><stop offset="1" stop-color="#11998e"></stop></linearGradient></defs><g transform="translate(11.063 9.731)"><path d="M-1944.23-25.006h0q-3.7-.03-6.427-.143a1.124,1.124,0,0,1-.654-.285c-.249-.19-.276-.608-.087-1.255l10.3-35.989q.169-1.027,1.081-1.028h6.6q1.593,0,1.991.513t-.113,2.342L-1939-34.8q-.284.971-.029,1.285a1.477,1.477,0,0,0,1.053.372q.8.057,2.3.057h3.329q3.756,0,6.656-.115t5.12-.228a1.292,1.292,0,0,1,.994.259,1.008,1.008,0,0,1,.258,1,4.6,4.6,0,0,1-.568,1.6A17.7,17.7,0,0,1-1921.1-28.6a15.922,15.922,0,0,1-1.507,1.827,4.362,4.362,0,0,1-1.366,1.057,5.781,5.781,0,0,1-1.338.372,21.216,21.216,0,0,1-2.218.228q-1.393.085-3.47.113t-5.092.03h-.762Q-1940.854-24.976-1944.23-25.006Zm178.577,0q-3.587-.03-6.316-.143a1.125,1.125,0,0,1-.654-.285q-.369-.282-.085-1.255l10.182-35.589a1.335,1.335,0,0,1,.682-1.029,2.2,2.2,0,0,1,.852-.228q1.594-.056,3.1-.087t3.015-.085q1.506-.056,3.156-.085t3.641-.029q5.746,0,8.449.085a8.961,8.961,0,0,1,3.5.542,3.13,3.13,0,0,1,.8.972,8.241,8.241,0,0,1,.682,1.542,10.965,10.965,0,0,1,.426,1.8,8.007,8.007,0,0,1,.085,1.744,1.342,1.342,0,0,1-.483.97,1.625,1.625,0,0,1-1.053.343q-2.047-.115-5.005-.142t-6.088-.029h-3.583q-1.765,0-2.732.056a2.011,2.011,0,0,0-1.136.343,2.151,2.151,0,0,0-.568,1.027l-1.423,5.142q-.224.8-.029,1a1.218,1.218,0,0,0,.826.2h15.757a1.483,1.483,0,0,1,.994.314,1.194,1.194,0,0,1,.314,1.057,5.534,5.534,0,0,1-.342,1.2,9.931,9.931,0,0,1-.767,1.542,12.648,12.648,0,0,1-1.053,1.485,5.948,5.948,0,0,1-1.14,1.085,4.959,4.959,0,0,1-1.706.6,14.736,14.736,0,0,1-2.218.143h-11.777a1.78,1.78,0,0,0-1.136.285,2.089,2.089,0,0,0-.568.914l-1.479,5.483q-.454,1.314.912,1.372c.6,0,1.271.009,1.991.029s1.82.029,3.3.029q4.551,0,7.538-.143t4.808-.257a1.526,1.526,0,0,1,1.081.372.858.858,0,0,1,.169,1,7.376,7.376,0,0,1-.652,1.685A15.163,15.163,0,0,1-1742.5-28.2a11.041,11.041,0,0,1-1.336,1.569,4,4,0,0,1-1.337.914,4.28,4.28,0,0,1-1.367.427,18.762,18.762,0,0,1-2.275.2q-1.423.056-3.528.085t-5.118.03h-1.464Q-1762.65-24.979-1765.653-25.006Zm-144.446,0h0q-3.585-.03-6.314-.143a1.128,1.128,0,0,1-.655-.285q-.369-.283-.084-1.255l10.182-35.589a1.328,1.328,0,0,1,.682-1.029,2.19,2.19,0,0,1,.852-.228q1.593-.056,3.1-.087t3.017-.085q1.506-.056,3.156-.085t3.64-.029q5.747,0,8.45.085a8.96,8.96,0,0,1,3.5.542,3.1,3.1,0,0,1,.8.972,8.176,8.176,0,0,1,.684,1.542,11.255,11.255,0,0,1,.426,1.8,8.019,8.019,0,0,1,.085,1.744,1.34,1.34,0,0,1-.483.97,1.634,1.634,0,0,1-1.053.344q-2.049-.116-5.005-.143t-6.088-.029h-3.582q-1.765,0-2.732.056a2,2,0,0,0-1.135.343,2.133,2.133,0,0,0-.568,1.027l-1.423,5.142c-.15.534-.162.866-.028,1a1.216,1.216,0,0,0,.825.2h15.757a1.482,1.482,0,0,1,.994.314,1.187,1.187,0,0,1,.313,1.057,5.4,5.4,0,0,1-.341,1.2,9.725,9.725,0,0,1-.769,1.542,12.076,12.076,0,0,1-1.052,1.486,5.9,5.9,0,0,1-1.137,1.085,4.963,4.963,0,0,1-1.706.6,14.8,14.8,0,0,1-2.218.142h-11.779a1.778,1.778,0,0,0-1.136.285,2.1,2.1,0,0,0-.568.914l-1.479,5.483q-.454,1.314.909,1.372.911,0,1.992.029t3.3.029q4.551,0,7.538-.143t4.806-.257a1.52,1.52,0,0,1,1.081.372.853.853,0,0,1,.171,1,7.324,7.324,0,0,1-.654,1.685,15.005,15.005,0,0,1-1.11,1.829,11.054,11.054,0,0,1-1.336,1.569,3.982,3.982,0,0,1-1.337.914,4.271,4.271,0,0,1-1.366.427,18.779,18.779,0,0,1-2.275.2q-1.423.056-3.528.085t-5.12.03h-1.463Q-1907.092-24.979-1910.1-25.006Zm108.946-.084h-7.679q-.911,0-.626-1.141l10.354-36.1a1.365,1.365,0,0,1,.568-.914,1.528,1.528,0,0,1,.741-.228l2.987-.113q1.51-.056,3.156-.115t3.613-.085q1.96-.028,4.409-.028a46.822,46.822,0,0,1,8.135.542,7.9,7.9,0,0,1,4.21,1.857,6.791,6.791,0,0,1,1.65,4.055,17.583,17.583,0,0,1-.966,7.027,21.022,21.022,0,0,1-2.731,6.226,13.329,13.329,0,0,1-3.755,3.828,15.409,15.409,0,0,1-2.019,1,12.366,12.366,0,0,1-2.446.685,27.191,27.191,0,0,1-3.158.372q-1.765.116-4.039.115h-5.8a1.76,1.76,0,0,0-1.252.342,3.782,3.782,0,0,0-.682,1.429l-2.788,9.654a2.293,2.293,0,0,1-.654,1.255,1.9,1.9,0,0,1-1.095.348Q-1801.089-25.086-1801.154-25.091Zm11.038-30.962a1.38,1.38,0,0,0-.8.313,1.886,1.886,0,0,0-.455.941l-2.22,7.713a1.888,1.888,0,0,0-.056,1.2c.115.19.473.285,1.08.285h4.1a12.3,12.3,0,0,0,4.609-.57,5.389,5.389,0,0,0,1.791-1.569,9.614,9.614,0,0,0,1.566-3.284,8.227,8.227,0,0,0,.568-2.886,2.808,2.808,0,0,0-.455-1.569,2.157,2.157,0,0,0-1.423-.57q-1.024-.117-3.411-.115-1.654,0-2.846.026v0Q-1789.263-56.111-1790.116-56.052Zm-205.628,30.588a1.331,1.331,0,0,1-.256-.77,2.721,2.721,0,0,1,.2-.972,9.963,9.963,0,0,1,.71-1.37l14.222-24.334q1.309-2.228,2.3-3.769t1.82-2.6a16.157,16.157,0,0,1,1.479-1.685,10.4,10.4,0,0,1,1.223-1.029,11.281,11.281,0,0,1,3.441-1.457,23.126,23.126,0,0,1,5.6-.542,20.483,20.483,0,0,1,5.491.542,5.461,5.461,0,0,1,2.589,1.457,4.855,4.855,0,0,1,.656,1.057,8.025,8.025,0,0,1,.539,1.714,19.445,19.445,0,0,1,.343,2.655q.112,1.6.112,3.885l.057,25.306a5.243,5.243,0,0,1-.057.915,5.005,5.005,0,0,1-.17.629q-.169.742-1.136.742h-4.154q-2.788,0-3.84-.914a3.853,3.853,0,0,1-.994-3.143v-5.6a2,2,0,0,0-.341-1.342,2.287,2.287,0,0,0-1.594-.372h-9.955a3.4,3.4,0,0,0-1.678.343,3.792,3.792,0,0,0-1.223,1.429l-3.3,5.711a6.92,6.92,0,0,1-2.731,3.084,9.374,9.374,0,0,1-4.265.8h-4.212a.993.993,0,0,1-.1.005A1,1,0,0,1-1995.744-25.464Zm28.36-18.48a3.211,3.211,0,0,0,1.735-.315,1.4,1.4,0,0,0,.54-.886,2.987,2.987,0,0,0,.142-.913q.03-.628.085-1.485l.115-4.285a9.92,9.92,0,0,0-.115-2.343,3.92,3.92,0,0,0-.34-1.026,2.54,2.54,0,0,0-1.822-.515,3.7,3.7,0,0,0-2.045.517h0a5.422,5.422,0,0,0-1,1.055,24.338,24.338,0,0,0-1.508,2.429l-2.446,4.455a7.951,7.951,0,0,0-.709,1.283c-.171.4-.3.7-.371.885-.115.459-.058.761.171.915a3.258,3.258,0,0,0,1.536.228Zm246.619,18.85-7.57,0q-.967,0-.682-1.085l7.4-25.878a12.988,12.988,0,0,0,.426-1.914,1.57,1.57,0,0,0-.168-1.086,1.54,1.54,0,0,0-1.025-.513,12.238,12.238,0,0,0-2.133-.143h-7.4q-1.308,0-1.022-1.37a9.217,9.217,0,0,1,.568-1.8,13.791,13.791,0,0,1,.883-1.742,12.313,12.313,0,0,1,.994-1.426,4.144,4.144,0,0,1,.968-.914,4.652,4.652,0,0,1,1.906-.6,30.377,30.377,0,0,1,3.44-.142h27.31a1.247,1.247,0,0,1,.994.428c.246.285.277.791.086,1.514a13.62,13.62,0,0,1-.6,1.657,15.969,15.969,0,0,1-.8,1.6c-.284.495-.568.944-.852,1.342a2.788,2.788,0,0,1-.825.829,2.268,2.268,0,0,1-1.309.544q-.8.084-2.218.084h-4.38a13.632,13.632,0,0,0-1.963.115,2.488,2.488,0,0,0-1.25.514,2.9,2.9,0,0,0-.8,1.141q-.314.745-.71,2l-7.226,25.189a2.283,2.283,0,0,1-.625,1.229,2.023,2.023,0,0,1-1.251.434C-1720.652-25.087-1720.708-25.089-1720.765-25.094Zm-106.673,0-7.565,0q-.966,0-.682-1.085l7.395-25.878a13.02,13.02,0,0,0,.426-1.914,1.577,1.577,0,0,0-.171-1.086,1.528,1.528,0,0,0-1.024-.513,12.194,12.194,0,0,0-2.13-.142h-7.4q-1.309,0-1.024-1.37a9.429,9.429,0,0,1,.568-1.8,13.78,13.78,0,0,1,.882-1.742,12.61,12.61,0,0,1,1-1.426,4.141,4.141,0,0,1,.966-.913,4.667,4.667,0,0,1,1.906-.6,30.405,30.405,0,0,1,3.441-.142h27.307a1.247,1.247,0,0,1,.994.428q.37.428.085,1.514a13.453,13.453,0,0,1-.6,1.657,15.852,15.852,0,0,1-.8,1.6c-.284.495-.568.944-.852,1.342a2.806,2.806,0,0,1-.825.829,2.28,2.28,0,0,1-1.308.544c-.532.056-1.271.084-2.22.084h-4.38a13.617,13.617,0,0,0-1.962.115,2.5,2.5,0,0,0-1.252.514,2.937,2.937,0,0,0-.795,1.141q-.313.745-.713,2l-7.224,25.189a2.3,2.3,0,0,1-.626,1.229,2.029,2.029,0,0,1-1.254.434Q-1827.353-25.087-1827.438-25.094Zm-28.473-.2a3.7,3.7,0,0,1-1.7-.742,3.364,3.364,0,0,1-1-1.514,10.133,10.133,0,0,1-.455-2.571l-.455-4.8a4.543,4.543,0,0,0-.852-2.742,3.228,3.228,0,0,0-2.332-.685h-4.666a1.574,1.574,0,0,0-.965.257,2.289,2.289,0,0,0-.627,1.057l-2.958,10.339a2.293,2.293,0,0,1-.654,1.255,1.9,1.9,0,0,1-1.224.343h-7.681q-.907,0-.624-1.14l10.354-36.161a1.324,1.324,0,0,1,.568-.855,1.526,1.526,0,0,1,.74-.228q2.844-.113,6.115-.257t6.342-.142q3.414,0,5.831.115a29.636,29.636,0,0,1,4.068.428,12.414,12.414,0,0,1,2.731.8,5.806,5.806,0,0,1,1.764,1.17,6.246,6.246,0,0,1,1.451,3.713,15.537,15.537,0,0,1-.654,6,19.369,19.369,0,0,1-2.22,5.055,20.155,20.155,0,0,1-2.957,3.743q-.8.742-1.311,1.283a3.378,3.378,0,0,0-.738,1.17,6.3,6.3,0,0,0-.115,1.8,20.35,20.35,0,0,0,.283,2.43l.966,9.424a1.64,1.64,0,0,1-.311,1.172,1.248,1.248,0,0,1-1.053.485l-3.07,0-.21,0A14.129,14.129,0,0,1-1855.91-25.292Zm-7.648-30.476a1.761,1.761,0,0,0-.455.97l-2.219,7.6a1.822,1.822,0,0,0-.029,1.057q.143.314.939.314h5.064a19.664,19.664,0,0,0,2.106-.085,4.532,4.532,0,0,0,1.364-.372,5.133,5.133,0,0,0,1.906-1.628,9.681,9.681,0,0,0,1.735-3.4q1.026-2.913.171-4.056a2.592,2.592,0,0,0-1.593-.629,29.2,29.2,0,0,0-3.755-.172h-2.446a13.637,13.637,0,0,0-1.937.115h0A1.6,1.6,0,0,0-1863.559-55.767Zm184.191-2.14q-.151-.174-.037-.625l.688-3.415a.244.244,0,0,0,0-.164c-.019-.033-.064-.047-.135-.047a.229.229,0,0,0-.164.053.691.691,0,0,0-.122.178l-1.271,2.665a2.373,2.373,0,0,1-.582.9,1.39,1.39,0,0,1-.43.181,2.947,2.947,0,0,1-.7.065,2.593,2.593,0,0,1-.684-.074.821.821,0,0,1-.381-.2.689.689,0,0,1-.143-.342,1.932,1.932,0,0,1,.038-.621l.344-2.575a.258.258,0,0,0-.029-.194.183.183,0,0,0-.135-.048.261.261,0,0,0-.177.054.589.589,0,0,0-.126.21l-1.325,3.529a.906.906,0,0,1-.361.51,1.258,1.258,0,0,1-.606.124h-.474a.148.148,0,0,1-.136-.058.2.2,0,0,1,0-.172l1.663-4.2a3.411,3.411,0,0,1,.3-.622,1.015,1.015,0,0,1,.291-.3,1.3,1.3,0,0,1,.458-.181,3.587,3.587,0,0,1,.762-.066q.819,0,1.032.247a.685.685,0,0,1,.123.35,2.407,2.407,0,0,1-.041.678l-.328,2.608a.31.31,0,0,0,.008.2.147.147,0,0,0,.132.047.262.262,0,0,0,.164-.044.6.6,0,0,0,.131-.2l1.262-2.682a3.435,3.435,0,0,1,.331-.65,1.28,1.28,0,0,1,.324-.329,1.263,1.263,0,0,1,.487-.168,4.387,4.387,0,0,1,.734-.053,2.865,2.865,0,0,1,.761.074.745.745,0,0,1,.336.173.42.42,0,0,1,.078.111.552.552,0,0,1,.054.185,1.364,1.364,0,0,1,0,.285,2.892,2.892,0,0,1-.069.416l-.82,4.171a.241.241,0,0,1-.262.19h-.4a.744.744,0,0,1-.088.005A.744.744,0,0,1-1679.368-57.907Zm-10.274.172h-1.084q-.139,0-.1-.156l1.065-3.727a1.862,1.862,0,0,0,.062-.276.223.223,0,0,0-.025-.156.223.223,0,0,0-.148-.074,1.806,1.806,0,0,0-.307-.02h-1.065c-.126,0-.175-.066-.147-.2a1.339,1.339,0,0,1,.082-.259,2.085,2.085,0,0,1,.126-.251,1.812,1.812,0,0,1,.142-.206.618.618,0,0,1,.14-.133.674.674,0,0,1,.275-.086,4.443,4.443,0,0,1,.495-.02h3.933a.179.179,0,0,1,.142.061.244.244,0,0,1,.013.219,1.889,1.889,0,0,1-.086.238,2.481,2.481,0,0,1-.115.231c-.038.066-.079.13-.123.193a.4.4,0,0,1-.119.119.326.326,0,0,1-.189.079q-.159.014-.319.013h-.631a1.969,1.969,0,0,0-.284.016.35.35,0,0,0-.18.074.427.427,0,0,0-.115.165c-.029.071-.064.167-.1.288l-1.041,3.628a.33.33,0,0,1-.09.177.291.291,0,0,1-.181.063Z" transform="translate(2066.577 69.053)" fill="#243746"></path><path d="M27.046,2398.635a35.08,35.08,0,0,1-11.188-7.543c-.167-.167-.329-.334-.494-.5-2.771,1.252-4.552,2.178-4.58,2.193a8.564,8.564,0,0,1-2.975.558,7.355,7.355,0,0,1-4.128-1.266,8.33,8.33,0,0,1-2.756-3.17,8.065,8.065,0,0,1,.586-8.479l5.194-5.235a35.237,35.237,0,0,1,42.932-43.055,9.056,9.056,0,0,1,4.108-.9,9.356,9.356,0,0,1,4.543,1.109,6.944,6.944,0,0,1,3.232,3.926l.436,1.839a35.252,35.252,0,0,1,11.223,41.8q-.4.952-.861,1.881l.2.836a9.308,9.308,0,0,1-1.785,8,8.779,8.779,0,0,1-6.68,3.16,7.843,7.843,0,0,1-1.29-.106,35.253,35.253,0,0,1-35.717,4.962Zm13.45-15.168c-6.32.087-14.063,2.615-19.445,4.72q-.884.346-1.72.69a31.174,31.174,0,0,0,39.539,2.68l0,0a19.756,19.756,0,0,0-4.5-4.043,24,24,0,0,0-13.5-4.044c-.124,0-.246,0-.369,0Zm8.806-2.577a30.255,30.255,0,0,1,6.369,3,23.389,23.389,0,0,1,5.17,4.136,5.4,5.4,0,0,0,3.726,1.687,3.942,3.942,0,0,0,3.337-1.785,5.888,5.888,0,0,0,.413-5.8L57.925,2338.21a4.126,4.126,0,0,0-4.207-3.286,3.944,3.944,0,0,0-3.01,1.343l-45.58,46.193c-1.047.805-1.44,2.813-.875,4.474a3.506,3.506,0,0,0,3.5,2.484,6.644,6.644,0,0,0,1.988-.337c.2-.1,4.891-2.436,11.055-4.777a96.119,96.119,0,0,1,10.173-3.284,41.646,41.646,0,0,1,10.03-1.493,26.373,26.373,0,0,1,8.305,1.363Zm21.391-5.958a31.2,31.2,0,0,0-7.089-29.882ZM9.568,2366.2a30.651,30.651,0,0,0,.509,5.583L46.1,2335.48a31.9,31.9,0,0,0-5.351-.453A31.212,31.212,0,0,0,9.568,2366.2Zm31.31,6.644a3.471,3.471,0,1,1,3.471,3.471A3.47,3.47,0,0,1,40.878,2372.846Zm5.355-4.968-.48-.156a1.155,1.155,0,0,1-.89-1.346l5.145-20.327a2.313,2.313,0,0,1,3.023-1.135l.6.194a2.312,2.312,0,0,1,1.779,2.695l-7.665,19.507a1.036,1.036,0,0,1-1.036.644,1.531,1.531,0,0,1-.476-.079Z" transform="translate(-11.054 -2340.736)" fill="url(#a)"></path></g></svg> 